<svg id="logo" width="30" height="32" viewBox="0 0 30 32" fill="none" xmlns="http://www.w3.org/2000/svg">
<path id="svgInternalID" d="M20.1084 8.83301C20.3896 9.19336 20.583 9.55811 20.6885 9.92725C20.8027 10.2964 20.9478 11.2368 21.1235 12.7485C21.3081 14.2515 21.4971 16.0532 21.6904 18.1538C21.8838 20.2544 22.042 21.8804 22.165 23.0317C22.2881 24.1831 22.4814 25.4971 22.7451 26.9736C22.1123 27.1758 21.3477 27.2769 20.4512 27.2769C19.5635 27.2769 18.9395 27.1758 18.5791 26.9736C18.21 25.9189 17.9331 23.8315 17.7485 20.7114L12.3696 20.4609C11.5522 24.8555 10.1328 27.1802 8.11133 27.4351C8.02344 27.4438 7.93994 27.4482 7.86084 27.4482C7.24561 27.4482 6.68311 27.2637 6.17334 26.8945C5.66357 26.5166 5.40869 26.064 5.40869 25.5366C6.13818 25.0444 6.81055 24.3589 7.42578 23.48C8.0498 22.6011 8.56396 21.6606 8.96826 20.6587C9.38135 19.6479 9.7373 18.5801 10.0361 17.4551C10.5811 15.3369 10.8535 13.3682 10.8535 11.5488C10.8535 10.9248 10.7788 10.4634 10.6294 10.1646C10.48 9.86572 10.168 9.68115 9.69336 9.61084C9.55273 9.43506 9.48242 9.12305 9.48242 8.6748C9.48242 8.22656 9.5 7.94531 9.53516 7.83105C11.9873 7.96289 15.1733 8.05078 19.0933 8.09473C19.4976 8.21777 19.8359 8.46387 20.1084 8.83301ZM17.6035 18.7075C17.5596 17.7759 17.5112 16.6025 17.4585 15.1875C17.4058 13.7725 17.3706 12.8979 17.353 12.564C17.3354 12.2212 17.3091 11.9004 17.2739 11.6016C17.2388 11.2939 17.2036 11.0742 17.1685 10.9424C17.1333 10.8105 17.0762 10.6919 16.9971 10.5864C16.8916 10.437 16.6235 10.3359 16.1929 10.2832C15.771 10.2305 14.7866 10.2041 13.2397 10.2041C13.2397 11.3555 13.1738 12.7793 13.042 14.4756C12.9189 16.1719 12.7959 17.5034 12.6729 18.4702H13.1738C14.6855 18.4702 16.1621 18.5493 17.6035 18.7075Z" fill="#353535"/>
<rect x="1" y="3" width="28" height="28" rx="9" stroke="#353535" stroke-width="2"/>
</svg>

