<svg width="115" height="32" viewBox="0 0 115 32" fill="none" xmlns="http://www.w3.org/2000/svg">
<path d="M44.4648 20.1973L44.478 19.3931C44.478 17.9429 44.3462 16.9717 44.0825 16.4795C43.8276 15.9873 43.3442 15.7412 42.6323 15.7412C42.2017 15.7412 41.7314 15.8994 41.2217 16.2158C40.7119 16.5234 40.0483 17.02 39.231 17.7056C39.2397 18.2417 39.2441 19.5029 39.2441 21.4893C39.2441 23.4668 39.2397 25.3037 39.231 27C38.3081 27.1846 37.5083 27.2769 36.8315 27.2769C36.1548 27.2769 35.5967 27.1934 35.1572 27.0264C35.2715 25.0312 35.3286 23.2207 35.3286 21.5947C35.3286 19.96 35.2979 18.2505 35.2363 16.4663C35.2363 15.7983 34.9902 15.4116 34.498 15.3062C34.1992 15.2095 33.7773 15.1392 33.2324 15.0952C33.2236 15.0425 33.2104 14.981 33.1929 14.9106C33.1841 14.8315 33.1753 14.77 33.1665 14.7261C33.1489 14.603 33.1401 14.4976 33.1401 14.4097C33.1401 14.3218 33.1445 14.2427 33.1533 14.1724C34.4629 13.4165 36.0405 13.0386 37.8862 13.0386C38.0532 13.0386 38.2949 13.0474 38.6113 13.0649C38.8135 13.3813 38.9497 13.8472 39.02 14.4624C39.0903 15.0688 39.1431 15.4951 39.1782 15.7412C40.6987 14.3525 42.0127 13.4912 43.1201 13.1572C43.6299 13.0078 44.1265 12.9331 44.6099 12.9331C45.0933 12.9331 45.5239 12.9814 45.9019 13.0781C46.2886 13.166 46.6489 13.311 46.9829 13.5132C47.686 13.9438 48.0728 14.6689 48.1431 15.6885C49.7603 13.8516 51.5488 12.9331 53.5088 12.9331C54.6074 12.9331 55.4688 13.2144 56.0928 13.7769C56.7783 14.4097 57.1211 15.6445 57.1211 17.4814C57.1211 18.2373 57.0596 19.314 56.9365 20.7114C56.8135 22.1001 56.752 23.3569 56.752 24.4819C56.752 24.7104 56.9146 24.8862 57.2397 25.0093C57.5649 25.1323 57.8813 25.1938 58.189 25.1938C58.5054 25.1938 58.7207 25.1763 58.835 25.1411C58.9492 25.4136 59.0063 25.6377 59.0063 25.8135C59.0063 25.9893 58.9932 26.1167 58.9668 26.1958C57.5342 27.0923 56.3521 27.5405 55.4204 27.5405C53.8999 27.5405 53.1396 26.3276 53.1396 23.9019L53.311 19.2217C53.311 17.8857 53.1968 16.9761 52.9683 16.4927C52.7397 16.0093 52.3267 15.7676 51.729 15.7676C50.5952 15.7676 49.4087 16.2993 48.1694 17.3628C48.2222 22.8735 48.3013 26.0156 48.4067 26.7891C47.4663 27.0527 46.7017 27.1846 46.1128 27.1846C45.5327 27.1846 44.9307 27.1143 44.3066 26.9736C44.2979 26.7979 44.2935 26.521 44.2935 26.1431L44.4648 20.1973ZM65.3213 21.3047C65.585 22.6055 66.1475 23.6558 67.0088 24.4556C67.8701 25.2554 68.8765 25.6553 70.0278 25.6553C71.1792 25.6553 72.3394 25.1587 73.5083 24.1655C73.9478 24.4556 74.2158 24.7983 74.3125 25.1938C73.5039 26.1343 72.3086 26.8066 70.7266 27.2109C70.085 27.3779 69.3423 27.4614 68.4985 27.4614C67.6636 27.4614 66.7979 27.3076 65.9014 27C65.0049 26.7012 64.2007 26.2617 63.4888 25.6816C62.7856 25.1016 62.2275 24.3413 61.8145 23.4009C61.4014 22.4517 61.1948 21.4014 61.1948 20.25C61.1948 19.0986 61.4058 18.0571 61.8276 17.1255C62.2495 16.1851 62.8076 15.416 63.502 14.8184C64.9521 13.5615 66.6133 12.9331 68.4854 12.9331C70.1289 12.9331 71.5527 13.377 72.7568 14.2646C73.3369 14.7041 73.7983 15.2754 74.1411 15.9785C74.4927 16.6729 74.6685 17.4595 74.6685 18.3384C74.6685 19.8413 74.1719 20.6323 73.1787 20.7114L65.3213 21.3047ZM71.1221 17.9429C71.1221 16.897 70.832 16.0796 70.252 15.4907C69.6719 14.9019 68.9116 14.6074 67.9712 14.6074C67.0308 14.6074 66.3188 15.0513 65.8354 15.939C65.3521 16.8179 65.1104 18.0396 65.1104 19.604C67.2988 19.3667 69.2764 19.1162 71.043 18.8525C71.0957 18.5361 71.1221 18.2329 71.1221 17.9429ZM77.9248 10.1777C77.7754 9.3252 77.2173 8.8418 76.2505 8.72754C76.189 8.29687 76.1582 8.05518 76.1582 8.00244C76.1582 7.94092 76.1626 7.875 76.1714 7.80469C77.8325 7.1543 79.5156 6.8291 81.2207 6.8291C81.2998 6.8291 81.3833 6.8291 81.4712 6.8291C81.6558 7.06641 81.7788 7.62012 81.8403 8.49023C81.9019 9.35156 81.9326 11.3643 81.9326 14.5283C81.9326 17.6836 81.8843 21.8408 81.7876 27C81.2075 27.167 80.5132 27.2505 79.7046 27.2505C78.896 27.2505 78.2676 27.1582 77.8193 26.9736C77.9775 25.7959 78.0566 23.5503 78.0566 20.2368C78.0566 16.9233 78.0127 13.5703 77.9248 10.1777ZM86.6787 6.80273C87.1973 6.36328 87.7598 6.14355 88.3662 6.14355C88.9727 6.14355 89.4736 6.33252 89.8691 6.71045C90.2646 7.07959 90.4624 7.60254 90.4624 8.2793C90.4624 8.95605 90.2075 9.52734 89.6978 9.99316C89.188 10.4502 88.6035 10.6787 87.9443 10.6787C87.2939 10.6787 86.7798 10.4766 86.4019 10.0723C86.0327 9.66797 85.8481 9.14941 85.8481 8.5166C85.8481 7.88379 86.125 7.3125 86.6787 6.80273ZM86.3228 16.4399C86.3228 15.772 86.0898 15.3765 85.624 15.2534C85.3252 15.1567 84.9033 15.0864 84.3584 15.0425C84.2969 14.7788 84.2661 14.5811 84.2661 14.4492C84.2661 14.3086 84.2705 14.1987 84.2793 14.1196C85.5449 13.4077 87.1313 13.0518 89.0386 13.0518C89.3462 13.0518 89.5747 13.0562 89.7241 13.0649C89.9702 13.4517 90.1416 14.2075 90.2383 15.3325C90.3086 15.8423 90.3438 16.6113 90.3438 17.6396C90.3438 18.668 90.3086 21.7969 90.2383 27.0264C89.2627 27.1934 88.4497 27.2769 87.7993 27.2769C87.1577 27.2769 86.6128 27.1934 86.1646 27.0264C86.3228 24.9082 86.4019 23.0142 86.4019 21.3442C86.4019 19.6655 86.3755 18.0308 86.3228 16.4399ZM106.177 19.5513L106.098 23.981C106.098 24.0249 106.098 24.0688 106.098 24.1128C106.098 24.5962 106.327 24.8379 106.784 24.8379C107.135 24.8379 107.509 24.7236 107.904 24.4951C108.027 24.6006 108.142 24.75 108.247 24.9434C108.361 25.1279 108.427 25.2729 108.445 25.3784C107.355 26.7671 106.221 27.4614 105.043 27.4614C103.875 27.4614 103.057 26.8857 102.591 25.7344C101.783 26.2969 100.957 26.7231 100.113 27.0132C99.2778 27.312 98.5571 27.4614 97.9507 27.4614C97.353 27.4614 96.7949 27.3955 96.2764 27.2637C95.7666 27.1318 95.292 26.9209 94.8525 26.6309C93.9033 26.0156 93.4287 25.0005 93.4287 23.5854C93.4287 22.8296 93.6353 22.1704 94.0483 21.6079C94.4702 21.0366 95.0415 20.5884 95.7622 20.2632C97.1421 19.6392 98.79 19.3008 100.706 19.248L102.235 19.1953C102.297 18.4834 102.328 17.9209 102.328 17.5078C102.328 16.5762 102.147 15.873 101.787 15.3984C101.436 14.9238 100.776 14.6865 99.8096 14.6865C99.2295 14.6865 98.7769 14.8887 98.4517 15.293C98.1353 15.6973 97.9771 16.2949 97.9771 17.0859C97.9771 17.1914 97.8276 17.3188 97.5288 17.4683C97.0278 17.7056 96.5269 17.8242 96.0259 17.8242C95.5337 17.8242 95.1382 17.6836 94.8394 17.4023C94.5493 17.1211 94.4043 16.7256 94.4043 16.2158C94.4043 15.7061 94.5889 15.2271 94.958 14.7788C95.3271 14.3306 95.8193 13.9834 96.4346 13.7373C97.6562 13.2539 99.0493 13.0122 100.614 13.0122C102.249 13.0122 103.444 13.2715 104.2 13.79C104.885 14.2471 105.373 14.9019 105.663 15.7544C106.006 16.7476 106.177 18.0132 106.177 19.5513ZM102.235 24.3501C102.121 23.7085 102.064 23.1548 102.064 22.689C102.064 22.2144 102.077 21.5552 102.104 20.7114L100.271 20.7905C99.3306 20.7905 98.6055 21.019 98.0957 21.4761C97.5859 21.9331 97.3311 22.5044 97.3311 23.1899C97.3311 23.8755 97.4805 24.3677 97.7793 24.6665C98.0781 24.9653 98.6802 25.1147 99.5854 25.1147C100.5 25.1147 101.383 24.8599 102.235 24.3501Z" fill="#7F7E7A"/>
<path d="M20.1084 8.83301C20.3896 9.19336 20.583 9.55811 20.6885 9.92725C20.8027 10.2964 20.9478 11.2368 21.1235 12.7485C21.3081 14.2515 21.4971 16.0532 21.6904 18.1538C21.8838 20.2544 22.042 21.8804 22.165 23.0317C22.2881 24.1831 22.4814 25.4971 22.7451 26.9736C22.1123 27.1758 21.3477 27.2769 20.4512 27.2769C19.5635 27.2769 18.9395 27.1758 18.5791 26.9736C18.21 25.9189 17.9331 23.8315 17.7485 20.7114L12.3696 20.4609C11.5522 24.8555 10.1328 27.1802 8.11133 27.4351C8.02344 27.4438 7.93994 27.4482 7.86084 27.4482C7.24561 27.4482 6.68311 27.2637 6.17334 26.8945C5.66357 26.5166 5.40869 26.064 5.40869 25.5366C6.13818 25.0444 6.81055 24.3589 7.42578 23.48C8.0498 22.6011 8.56396 21.6606 8.96826 20.6587C9.38135 19.6479 9.7373 18.5801 10.0361 17.4551C10.5811 15.3369 10.8535 13.3682 10.8535 11.5488C10.8535 10.9248 10.7788 10.4634 10.6294 10.1646C10.48 9.86572 10.168 9.68115 9.69336 9.61084C9.55273 9.43506 9.48242 9.12305 9.48242 8.6748C9.48242 8.22656 9.5 7.94531 9.53516 7.83105C11.9873 7.96289 15.1733 8.05078 19.0933 8.09473C19.4976 8.21777 19.8359 8.46387 20.1084 8.83301ZM17.6035 18.7075C17.5596 17.7759 17.5112 16.6025 17.4585 15.1875C17.4058 13.7725 17.3706 12.8979 17.353 12.564C17.3354 12.2212 17.3091 11.9004 17.2739 11.6016C17.2388 11.2939 17.2036 11.0742 17.1685 10.9424C17.1333 10.8105 17.0762 10.6919 16.9971 10.5864C16.8916 10.437 16.6235 10.3359 16.1929 10.2832C15.771 10.2305 14.7866 10.2041 13.2397 10.2041C13.2397 11.3555 13.1738 12.7793 13.042 14.4756C12.9189 16.1719 12.7959 17.5034 12.6729 18.4702H13.1738C14.6855 18.4702 16.1621 18.5493 17.6035 18.7075Z" fill="#7F7E7A"/>
<rect x="1" y="3" width="28" height="28" rx="9" stroke="#7F7E7A" stroke-width="2"/>
</svg>
